<svg xmlns="http://www.w3.org/2000/svg" xmlns:xlink="http://www.w3.org/1999/xlink" viewBox="0 0 898.05 1009.78"><defs><style>.cls-1{fill:url(#linear-gradient);}.cls-2{fill:url(#linear-gradient-2);}.cls-3{fill:url(#linear-gradient-3);}.cls-4{fill:none;}.cls-5{clip-path:url(#clip-path);}.cls-6{mask:url(#mask);}.cls-7{fill:url(#linear-gradient-4);}.cls-8{clip-path:url(#clip-path-2);}.cls-9{mask:url(#mask-2);}.cls-10{fill:url(#linear-gradient-5);}.cls-11{clip-path:url(#clip-path-3);}.cls-12{mask:url(#mask-3);}.cls-13{fill:url(#linear-gradient-6);}</style><linearGradient id="linear-gradient" x1="-1871.82" y1="905.02" x2="-1860.94" y2="905.02" gradientTransform="matrix(63.59, 0, 0, -63.59, 118952.4, 57750.96)" gradientUnits="userSpaceOnUse"><stop offset="0"/><stop offset="1" stop-color="#fff"/></linearGradient><linearGradient id="linear-gradient-2" x1="-1917.75" y1="885.97" x2="-1906.86" y2="885.97" gradientTransform="translate(-157480.98 73661.52) rotate(180) scale(82.71)" xlink:href="#linear-gradient"/><linearGradient id="linear-gradient-3" x1="-1919.75" y1="877.89" x2="-1908.86" y2="877.89" gradientTransform="translate(-109566.21 51097.24) rotate(180) scale(57.47)" xlink:href="#linear-gradient"/><clipPath id="clip-path" transform="translate(104.39 53.61)"><path class="cls-4" d="M108.45,0,0,210H561.26c94.28,0,170.58,76.73,170.58,171a137.51,137.51,0,0,1-1.33,19.3,28.82,28.82,0,0,1-.44,6.14c39.47-43.85,63.59-101.28,63.59-163.56C793.66,109.18,684.47,0,550.75,0Z"/></clipPath><mask id="mask" x="104.39" y="53.61" width="793.66" height="406.46" maskUnits="userSpaceOnUse"><g transform="translate(104.39 53.61)"><rect class="cls-1" width="793.66" height="406.46"/></g></mask><linearGradient id="linear-gradient-4" x1="-1871.82" y1="905.02" x2="-1860.94" y2="905.02" gradientTransform="matrix(63.59, 0, 0, -63.59, 119056.79, 57804.57)" gradientUnits="userSpaceOnUse"><stop offset="0" stop-color="#e91e8f"/><stop offset="1" stop-color="#e91e8f"/></linearGradient><clipPath id="clip-path-2" transform="translate(104.39 53.61)"><path class="cls-4" d="M98.76,277.45,0,487.47H550.75a232.09,232.09,0,0,0,25-1.3h.42c1.75,0,3.52,0,8.34-1.32,47.35-10.52,81.55-53.49,81.55-102.16,0-57.88-46.92-105.24-104.8-105.24Z"/></clipPath><mask id="mask-2" x="0" y="0" width="874.84" height="872.13" maskUnits="userSpaceOnUse"><g transform="translate(104.39 53.61)"><rect class="cls-2" x="32.53" y="64.4" width="601" height="636.13" transform="translate(-174.05 375.11) rotate(-48.12)"/></g></mask><linearGradient id="linear-gradient-5" x1="-1917.75" y1="885.97" x2="-1906.86" y2="885.97" gradientTransform="translate(-157480.98 73661.52) rotate(180) scale(82.71)" xlink:href="#linear-gradient-4"/><clipPath id="clip-path-3" transform="translate(104.39 53.61)"><path class="cls-4" d="M98.76,541.82,0,751.85H295.79a229.52,229.52,0,0,0,25-1.31h.42c1.75,0,3.51,0,8.34-1.31,47.35-10.53,81.54-53.49,81.54-102.16,0-57.88-46.91-105.25-104.79-105.25Z"/></clipPath><mask id="mask-3" x="0" y="391.1" width="619.87" height="618.68" maskUnits="userSpaceOnUse"><g transform="translate(104.39 53.61)"><rect class="cls-3" x="-9.85" y="423.69" width="430.8" height="446.29" transform="translate(-413.28 368.09) rotate(-48.12)"/></g></mask><linearGradient id="linear-gradient-6" x1="-1919.75" y1="877.89" x2="-1908.86" y2="877.89" gradientTransform="translate(-109566.22 51097.24) rotate(180) scale(57.47)" xlink:href="#linear-gradient-4"/></defs><g id="Layer_2" data-name="Layer 2"><g id="Layer_1-2" data-name="Layer 1"><g class="cls-5"><g class="cls-6"><rect class="cls-7" x="104.39" y="53.61" width="793.66" height="406.46"/></g></g><g class="cls-8"><g class="cls-9"><rect class="cls-10" x="32.53" y="64.4" width="601" height="636.13" transform="translate(-69.66 428.72) rotate(-48.12)"/></g></g><g class="cls-11"><g class="cls-12"><rect class="cls-13" x="-9.85" y="423.69" width="430.8" height="446.29" transform="translate(-308.89 421.69) rotate(-48.12)"/></g></g></g></g></svg>